<?xml version="1.0" encoding="utf-8"?>
<!-- Generator: Adobe Illustrator 17.1.0, SVG Export Plug-In . SVG Version: 6.00 Build 0)  -->
<!DOCTYPE svg PUBLIC "-//W3C//DTD SVG 1.1//EN" "http://www.w3.org/Graphics/SVG/1.1/DTD/svg11.dtd">
<svg version="1.1" id="Layer_1" xmlns="http://www.w3.org/2000/svg" xmlns:xlink="http://www.w3.org/1999/xlink" x="0px" y="0px"
	 viewBox="0 0 237.792 136.24" enable-background="new 0 0 237.792 136.24" xml:space="preserve">
<rect x="0" y="0" fill="#020202" stroke="#000000" stroke-miterlimit="10" width="237.792" height="135.74"/>
<path fill="#205C2E" stroke="#000000" stroke-miterlimit="10" d="M25.285,42.009c0,0-14.103,22.917,0,47.598
	s103.128,4.407,108.417,0c5.289-4.407,40.546-56.412,9.696-66.989S36.743,31.431,25.285,42.009z"/>
<ellipse fill="#388BCA" stroke="#000000" stroke-miterlimit="10" cx="89.01" cy="60.589" rx="28.883" ry="26.805"/>
<path fill="#6B8974" stroke="#000000" stroke-miterlimit="10" d="M161.6,105.203c1.346,26.041-34.715,27.904-79.198,30.203
	c-44.483,2.299-81.147-7.497-81.89-21.879S35.227,85.622,79.71,83.324S159.825,70.859,161.6,105.203z"/>
<ellipse fill="#205C2E" stroke="#000000" stroke-miterlimit="10" cx="32.679" cy="111.921" rx="13.662" ry="10.299"/>
<ellipse fill="#205C2E" stroke="#000000" stroke-miterlimit="10" cx="67.406" cy="110.436" rx="13.662" ry="10.299"/>
<ellipse fill="#205C2E" stroke="#000000" stroke-miterlimit="10" cx="106.45" cy="107.762" rx="13.662" ry="10.299"/>
<ellipse fill="#205C2E" stroke="#000000" stroke-miterlimit="10" cx="138.549" cy="107.939" rx="13.662" ry="10.299"/>
<path fill="#205C2E" stroke="#000000" stroke-miterlimit="10" d="M152.212,35.839l66.108-16.283c0,0,0.881-23.382,13.222-6.635
	l4.407,8.438c0,0,6.17,13.598-7.933,10.072s-72.278,12.6-72.278,12.6L152.212,35.839z"/>
<path fill="#205C2E" stroke="#000000" stroke-miterlimit="10" d="M110.784,19.556L101.97,0.581c0,0-31.226,7.439-34.564,24.874
	C64.068,42.89,110.784,19.556,110.784,19.556z"/>
<ellipse fill="#FFFFFF" stroke="#000000" stroke-miterlimit="10" cx="88.621" cy="60.418" rx="19.595" ry="18.246"/>
<ellipse fill="#ED1D24" stroke="#000000" stroke-miterlimit="10" cx="87.462" cy="59.587" rx="9.084" ry="8.283"/>
</svg>
